<svg width="173" height="27" viewBox="0 0 173 27" fill="none" xmlns="http://www.w3.org/2000/svg">
<path d="M22.9382 8.82315H19.0604C18.9112 7.99455 18.6336 7.26539 18.2276 6.63565C17.8216 6.00592 17.3245 5.47147 16.7362 5.03231C16.1478 4.59316 15.4891 4.26172 14.7599 4.038C14.0391 3.81428 13.2726 3.70241 12.4606 3.70241C10.994 3.70241 9.68063 4.07114 8.5206 4.80859C7.36884 5.54605 6.45739 6.62737 5.78622 8.05256C5.12334 9.47775 4.7919 11.2178 4.7919 13.2727C4.7919 15.3442 5.12334 17.0926 5.78622 18.5178C6.45739 19.9429 7.37299 21.0201 8.53303 21.7493C9.69306 22.4785 10.9981 22.843 12.4482 22.843C13.2519 22.843 14.0142 22.7353 14.7351 22.5199C15.4643 22.2962 16.123 21.9689 16.7113 21.538C17.2996 21.1071 17.7968 20.581 18.2028 19.9595C18.6171 19.3298 18.9029 18.6089 19.0604 17.7969L22.9382 17.8093C22.7311 19.0605 22.3292 20.2122 21.7326 21.2646C21.1443 22.3086 20.3861 23.2118 19.4581 23.9741C18.5384 24.7281 17.486 25.3123 16.3011 25.7266C15.1162 26.1409 13.8236 26.348 12.4233 26.348C10.2192 26.348 8.25545 25.826 6.53196 24.782C4.80848 23.7296 3.44957 22.2257 2.45526 20.2702C1.46922 18.3147 0.976207 15.9822 0.976207 13.2727C0.976207 10.5549 1.47337 8.22242 2.46768 6.27521C3.462 4.31972 4.8209 2.81996 6.54439 1.77592C8.26787 0.723602 10.2275 0.197442 12.4233 0.197442C13.7739 0.197442 15.0334 0.392163 16.2017 0.781605C17.3783 1.16276 18.4348 1.72621 19.3711 2.47195C20.3074 3.2094 21.0822 4.11257 21.6953 5.18146C22.3085 6.24207 22.7228 7.45597 22.9382 8.82315ZM50.345 13.2727C50.345 15.9905 49.8478 18.3272 48.8535 20.2827C47.8592 22.2299 46.4961 23.7296 44.7644 24.782C43.0409 25.826 41.0812 26.348 38.8855 26.348C36.6814 26.348 34.7135 25.826 32.9817 24.782C31.2582 23.7296 29.8993 22.2257 28.905 20.2702C27.9107 18.3147 27.4135 15.9822 27.4135 13.2727C27.4135 10.5549 27.9107 8.22242 28.905 6.27521C29.8993 4.31972 31.2582 2.81996 32.9817 1.77592C34.7135 0.723602 36.6814 0.197442 38.8855 0.197442C41.0812 0.197442 43.0409 0.723602 44.7644 1.77592C46.4961 2.81996 47.8592 4.31972 48.8535 6.27521C49.8478 8.22242 50.345 10.5549 50.345 13.2727ZM46.5417 13.2727C46.5417 11.2012 46.2061 9.45703 45.535 8.04013C44.8721 6.61494 43.9606 5.53776 42.8006 4.80859C41.6488 4.07114 40.3438 3.70241 38.8855 3.70241C37.4188 3.70241 36.1097 4.07114 34.9579 4.80859C33.8062 5.53776 32.8947 6.61494 32.2235 8.04013C31.5606 9.45703 31.2292 11.2012 31.2292 13.2727C31.2292 15.3442 31.5606 17.0926 32.2235 18.5178C32.8947 19.9347 33.8062 21.0118 34.9579 21.7493C36.1097 22.4785 37.4188 22.843 38.8855 22.843C40.3438 22.843 41.6488 22.4785 42.8006 21.7493C43.9606 21.0118 44.8721 19.9347 45.535 18.5178C46.2061 17.0926 46.5417 15.3442 46.5417 13.2727ZM76.3783 0.545454V26H72.8485L59.9099 7.33168H59.6738V26H55.8332V0.545454H59.3879L72.3389 19.2386H72.5751V0.545454H76.3783ZM81.4254 3.85156V0.545454H101.125V3.85156H93.1832V26H89.3551V3.85156H81.4254ZM105.321 26H101.244L110.404 0.545454H114.842L124.002 26H119.925L112.729 5.16903H112.53L105.321 26ZM106.005 16.032H119.229V19.2635H106.005V16.032ZM148.323 8.82315H144.445C144.296 7.99455 144.018 7.26539 143.612 6.63565C143.206 6.00592 142.709 5.47147 142.121 5.03231C141.533 4.59316 140.874 4.26172 140.145 4.038C139.424 3.81428 138.657 3.70241 137.845 3.70241C136.379 3.70241 135.065 4.07114 133.905 4.80859C132.754 5.54605 131.842 6.62737 131.171 8.05256C130.508 9.47775 130.177 11.2178 130.177 13.2727C130.177 15.3442 130.508 17.0926 131.171 18.5178C131.842 19.9429 132.758 21.0201 133.918 21.7493C135.078 22.4785 136.383 22.843 137.833 22.843C138.637 22.843 139.399 22.7353 140.12 22.5199C140.849 22.2962 141.508 21.9689 142.096 21.538C142.684 21.1071 143.182 20.581 143.588 19.9595C144.002 19.3298 144.288 18.6089 144.445 17.7969L148.323 17.8093C148.116 19.0605 147.714 20.2122 147.117 21.2646C146.529 22.3086 145.771 23.2118 144.843 23.9741C143.923 24.7281 142.871 25.3123 141.686 25.7266C140.501 26.1409 139.208 26.348 137.808 26.348C135.604 26.348 133.64 25.826 131.917 24.782C130.193 23.7296 128.834 22.2257 127.84 20.2702C126.854 18.3147 126.361 15.9822 126.361 13.2727C126.361 10.5549 126.858 8.22242 127.852 6.27521C128.847 4.31972 130.206 2.81996 131.929 1.77592C133.653 0.723602 135.612 0.197442 137.808 0.197442C139.159 0.197442 140.418 0.392163 141.586 0.781605C142.763 1.16276 143.82 1.72621 144.756 2.47195C145.692 3.2094 146.467 4.11257 147.08 5.18146C147.693 6.24207 148.108 7.45597 148.323 8.82315ZM152.363 3.85156V0.545454H172.063V3.85156H164.121V26H160.293V3.85156H152.363Z" fill="black"/>
</svg>
