<svg width="122" height="43" viewBox="0 0 122 43" fill="none" xmlns="http://www.w3.org/2000/svg">
<path d="M0.88 42V41.8075H5.83V0.942499H0.88V0.749997H20.845V0.942499H15.895V41.8075H20.1575C22.1192 41.8075 23.87 41.505 25.41 40.9C26.95 40.295 28.2792 39.4425 29.3975 38.3425C30.5342 37.2425 31.46 35.95 32.175 34.465C32.89 32.98 33.3942 31.3667 33.6875 29.625H33.88V42H0.88ZM64.8033 42L46.5983 15.05C45.8833 14.005 45.2783 12.8592 44.7833 11.6125C44.3067 10.3475 44.0683 9.23833 44.0683 8.285C44.0683 6.635 44.6367 5.205 45.7733 3.995C46.9283 2.785 48.5417 1.85 50.6133 1.19C52.7033 0.529997 55.1417 0.199997 57.9283 0.199997C60.5683 0.199997 62.8325 0.465831 64.7208 0.997498C66.6275 1.52917 68.085 2.28083 69.0933 3.2525C70.1017 4.22417 70.6058 5.37 70.6058 6.69C70.6058 7.88166 70.2758 8.9175 69.6158 9.7975C68.9742 10.6775 68.085 11.4567 66.9483 12.135C65.83 12.8133 64.5375 13.4183 63.0708 13.95C61.6225 14.4817 60.0917 14.9767 58.4783 15.435L58.4233 15.3525C58.7717 15.0775 59.1475 14.6925 59.5508 14.1975C59.9542 13.7025 60.2933 12.8867 60.5683 11.75C60.8433 10.595 60.9808 8.92666 60.9808 6.745C60.9808 5.62667 60.8892 4.58167 60.7058 3.61C60.5225 2.63833 60.1925 1.85916 59.7158 1.2725C59.2575 0.667498 58.5975 0.364998 57.7358 0.364998C56.9292 0.364998 56.2692 0.630832 55.7558 1.1625C55.2425 1.67583 54.8667 2.33583 54.6283 3.1425C54.39 3.94916 54.2708 4.765 54.2708 5.59C54.2708 6.745 54.665 8.175 55.4533 9.88C56.26 11.5667 57.25 13.29 58.4233 15.05L75.8583 41.8075H82.4858V42H64.8033ZM50.9708 42.55C47.8542 42.55 45.2692 42.1008 43.2158 41.2025C41.1625 40.2858 39.6225 39.0483 38.5958 37.49C37.5692 35.9133 37.0558 34.1533 37.0558 32.21C37.0558 30.4317 37.4042 28.8733 38.1008 27.535C38.7975 26.1783 39.6775 25.0142 40.7408 24.0425C41.8225 23.0708 42.95 22.255 44.1233 21.595C45.2967 20.935 46.3783 20.4033 47.3683 20C48.3583 19.5967 49.11 19.285 49.6233 19.065L49.6783 19.175C49.1283 19.4683 48.6608 19.9175 48.2758 20.5225C47.9092 21.1092 47.625 21.8608 47.4233 22.7775C47.24 23.6758 47.1483 24.7392 47.1483 25.9675C47.1483 27.8192 47.35 29.6342 47.7533 31.4125C48.1567 33.1725 48.7525 34.7675 49.5408 36.1975C50.3475 37.6275 51.3558 38.7642 52.5658 39.6075C53.7758 40.4508 55.1875 40.8725 56.8008 40.8725C58.5608 40.8725 60.2933 40.4508 61.9983 39.6075C63.7033 38.7642 65.3075 37.5908 66.8108 36.0875C68.3142 34.5842 69.6617 32.815 70.8533 30.78C72.0633 28.745 73.0533 26.5358 73.8233 24.1525C74.5933 21.7692 75.0975 19.2942 75.3358 16.7275H75.5008C75.2808 19.1842 74.7858 21.6408 74.0158 24.0975C73.2458 26.5542 72.2008 28.8917 70.8808 31.11C69.5608 33.31 67.9475 35.2717 66.0408 36.995C64.1342 38.7183 61.925 40.075 59.4133 41.065C56.92 42.055 54.1058 42.55 50.9708 42.55ZM68.1033 16.8925V16.7H81.3033V16.8925H68.1033ZM91.9841 42V41.8075H98.0341V0.942499H95.3941C93.9824 0.942499 92.6991 1.30917 91.5441 2.0425C90.3891 2.7575 89.3624 3.7475 88.4641 5.0125C87.5657 6.2775 86.8141 7.71667 86.2091 9.33C85.6224 10.925 85.1732 12.5933 84.8616 14.335H84.6691V0.749997H121.437V14.335H121.244C120.951 12.5933 120.502 10.925 119.897 9.33C119.292 7.71667 118.54 6.2775 117.642 5.0125C116.762 3.7475 115.744 2.7575 114.589 2.0425C113.434 1.30917 112.151 0.942499 110.739 0.942499H108.099V41.8075H114.149V42H91.9841Z" fill="#D9D9D9"/>
</svg>
