<svg width="157" height="20" viewBox="0 0 157 20" fill="none" xmlns="http://www.w3.org/2000/svg">
<path d="M7.275 0.249999V18.7875H9.525V19H0.275V18.7875H2.525V0.462499H0.275V0.249999H7.275ZM16.665 19.25C15.3234 19.25 14.1692 18.975 13.2025 18.425C12.2359 17.875 11.49 17.1458 10.965 16.2375C10.4484 15.3292 10.19 14.3333 10.19 13.25C10.19 12.1667 10.4484 11.1708 10.965 10.2625C11.49 9.35417 12.2359 8.625 13.2025 8.075C14.1692 7.525 15.3234 7.25 16.665 7.25C18.0067 7.25 19.1609 7.525 20.1275 8.075C21.0942 8.625 21.8359 9.35417 22.3525 10.2625C22.8775 11.1708 23.14 12.1667 23.14 13.25C23.14 14.3333 22.8775 15.3292 22.3525 16.2375C21.8359 17.1458 21.0942 17.875 20.1275 18.425C19.1609 18.975 18.0067 19.25 16.665 19.25ZM16.665 19.0375C16.9067 19.0375 17.1234 18.9083 17.315 18.65C17.515 18.3833 17.6859 18 17.8275 17.5C17.9692 16.9917 18.0775 16.3833 18.1525 15.675C18.2275 14.9583 18.265 14.15 18.265 13.25C18.265 12.35 18.2275 11.5458 18.1525 10.8375C18.0775 10.1208 17.9692 9.5125 17.8275 9.0125C17.6859 8.50417 17.515 8.12083 17.315 7.8625C17.1234 7.59583 16.9067 7.4625 16.665 7.4625C16.4234 7.4625 16.2025 7.59583 16.0025 7.8625C15.8109 8.12083 15.6442 8.50417 15.5025 9.0125C15.3609 9.5125 15.2525 10.1208 15.1775 10.8375C15.1025 11.5458 15.065 12.35 15.065 13.25C15.065 14.15 15.1025 14.9583 15.1775 15.675C15.2525 16.3833 15.3609 16.9917 15.5025 17.5C15.6442 18 15.8109 18.3833 16.0025 18.65C16.2025 18.9083 16.4234 19.0375 16.665 19.0375ZM30.6484 19.25C29.3068 19.25 28.1526 18.975 27.1859 18.425C26.2193 17.875 25.4734 17.1458 24.9484 16.2375C24.4318 15.3292 24.1734 14.3333 24.1734 13.25C24.1734 12.1667 24.4318 11.1708 24.9484 10.2625C25.4734 9.35417 26.2193 8.625 27.1859 8.075C28.1526 7.525 29.3068 7.25 30.6484 7.25C31.9901 7.25 33.1443 7.525 34.1109 8.075C35.0776 8.625 35.8193 9.35417 36.3359 10.2625C36.8609 11.1708 37.1234 12.1667 37.1234 13.25C37.1234 14.3333 36.8609 15.3292 36.3359 16.2375C35.8193 17.1458 35.0776 17.875 34.1109 18.425C33.1443 18.975 31.9901 19.25 30.6484 19.25ZM30.6484 19.0375C30.8901 19.0375 31.1068 18.9083 31.2984 18.65C31.4984 18.3833 31.6693 18 31.8109 17.5C31.9526 16.9917 32.0609 16.3833 32.1359 15.675C32.2109 14.9583 32.2484 14.15 32.2484 13.25C32.2484 12.35 32.2109 11.5458 32.1359 10.8375C32.0609 10.1208 31.9526 9.5125 31.8109 9.0125C31.6693 8.50417 31.4984 8.12083 31.2984 7.8625C31.1068 7.59583 30.8901 7.4625 30.6484 7.4625C30.4068 7.4625 30.1859 7.59583 29.9859 7.8625C29.7943 8.12083 29.6276 8.50417 29.4859 9.0125C29.3443 9.5125 29.2359 10.1208 29.1609 10.8375C29.0859 11.5458 29.0484 12.35 29.0484 13.25C29.0484 14.15 29.0859 14.9583 29.1609 15.675C29.2359 16.3833 29.3443 16.9917 29.4859 17.5C29.6276 18 29.7943 18.3833 29.9859 18.65C30.1859 18.9083 30.4068 19.0375 30.6484 19.0375ZM37.7818 19V18.7875H40.0318V0.462499H37.7818V0.249999H44.7818V18.7875H45.7818V19H37.7818ZM46.5068 19V18.7875H47.7693L43.5818 12.225L50.5443 7.7125H47.5068V7.5H53.0818V7.7125H50.8818L47.3068 10.0375L53.5818 18.7875H54.6818V19H46.5068ZM74.0693 19L65.7943 6.75C65.4693 6.275 65.1943 5.75417 64.9693 5.1875C64.7527 4.6125 64.6443 4.10833 64.6443 3.675C64.6443 2.925 64.9193 2.275 65.4693 1.725C66.0277 1.175 66.811 0.749999 67.8193 0.449999C68.836 0.149999 70.036 -1.2517e-06 71.4193 -1.2517e-06C72.7277 -1.2517e-06 73.8402 0.116665 74.7568 0.349999C75.6735 0.574999 76.3693 0.9 76.8443 1.325C77.3277 1.74167 77.5693 2.24167 77.5693 2.825C77.5693 3.30833 77.4193 3.74583 77.1193 4.1375C76.8277 4.52917 76.4193 4.88333 75.8943 5.2C75.3693 5.50833 74.7693 5.78333 74.0943 6.025C73.4193 6.25833 72.7027 6.4625 71.9443 6.6375L71.8318 6.475C71.9068 6.4 71.9943 6.28333 72.0943 6.125C72.1943 5.96667 72.2818 5.64583 72.3568 5.1625C72.4318 4.67917 72.4693 3.91667 72.4693 2.875C72.4693 2.34167 72.436 1.875 72.3693 1.475C72.3027 1.06667 72.1818 0.754165 72.0068 0.537499C71.8402 0.312499 71.6027 0.199999 71.2943 0.199999C71.0277 0.199999 70.8027 0.299999 70.6193 0.5C70.4443 0.699999 70.311 0.958332 70.2193 1.275C70.136 1.58333 70.0943 1.90833 70.0943 2.25C70.0943 2.80833 70.286 3.5 70.6693 4.325C71.0527 5.14167 71.511 5.95 72.0443 6.75L79.9318 18.7875H82.9193V19H74.0693ZM67.9193 19.25C66.3943 19.25 65.1485 19.0333 64.1818 18.6C63.2235 18.1667 62.5152 17.5917 62.0568 16.875C61.6068 16.15 61.3818 15.3583 61.3818 14.5C61.3818 13.6583 61.5318 12.925 61.8318 12.3C62.1402 11.675 62.5277 11.1417 62.9943 10.7C63.4693 10.25 63.9652 9.87917 64.4818 9.5875C65.0068 9.2875 65.4943 9.05 65.9443 8.875C66.3943 8.69167 66.7402 8.54583 66.9818 8.4375L67.0943 8.6C67.011 8.65 66.936 8.7625 66.8693 8.9375C66.811 9.10417 66.7652 9.3375 66.7318 9.6375C66.6985 9.92917 66.6818 10.2917 66.6818 10.725C66.6818 11.625 66.7693 12.5208 66.9443 13.4125C67.1193 14.3042 67.386 15.1125 67.7443 15.8375C68.111 16.5625 68.5777 17.1458 69.1443 17.5875C69.711 18.0208 70.386 18.2375 71.1693 18.2375C71.9027 18.2375 72.6318 18.0625 73.3568 17.7125C74.0902 17.3542 74.786 16.85 75.4443 16.2C76.1027 15.55 76.6985 14.7833 77.2318 13.9C77.7735 13.0083 78.2193 12.0292 78.5693 10.9625C78.9193 9.8875 79.1527 8.75 79.2693 7.55H79.4818C79.3735 8.65833 79.1443 9.77083 78.7943 10.8875C78.4443 12.0042 77.9652 13.0625 77.3568 14.0625C76.7485 15.0625 75.9985 15.9542 75.1068 16.7375C74.2152 17.5125 73.1735 18.125 71.9818 18.575C70.7902 19.025 69.436 19.25 67.9193 19.25ZM76.0443 7.7125V7.5H82.0443V7.7125H76.0443ZM94.543 19.175C93.6096 19.175 92.8888 19.0583 92.3805 18.825C91.8721 18.5833 91.518 18.225 91.318 17.75C91.118 17.275 91.018 16.6833 91.018 15.975V5C91.768 5 92.5888 4.95417 93.4805 4.8625C94.3805 4.7625 95.143 4.55833 95.768 4.25V16.4875C95.768 17.1125 95.843 17.5792 95.993 17.8875C96.143 18.1958 96.3846 18.35 96.718 18.35C97.068 18.35 97.4596 18.2042 97.893 17.9125C98.3346 17.6125 98.7013 17.1042 98.993 16.3875L99.193 16.45C98.893 17.25 98.3596 17.9042 97.593 18.4125C96.8263 18.9208 95.8096 19.175 94.543 19.175ZM89.193 7.7125V7.5H98.443V7.7125H89.193ZM99.2027 19V18.7875H100.953V0.462499H99.2027V0.249999H105.703V18.7875H106.703V19H99.2027ZM107.578 19V18.7875H108.578V10.975C108.578 10.275 108.549 9.75833 108.49 9.425C108.44 9.09167 108.349 8.875 108.215 8.775C108.09 8.66667 107.911 8.6125 107.678 8.6125C107.361 8.6125 107.078 8.75417 106.828 9.0375C106.586 9.3125 106.382 9.68333 106.215 10.15C106.049 10.6167 105.919 11.1333 105.828 11.7C105.744 12.2667 105.703 12.8417 105.703 13.425H105.503C105.503 12.7833 105.557 12.1042 105.665 11.3875C105.782 10.6708 105.986 10 106.278 9.375C106.578 8.75 107.007 8.24167 107.565 7.85C108.124 7.45 108.849 7.25 109.74 7.25C110.64 7.25 111.353 7.4125 111.878 7.7375C112.403 8.0625 112.774 8.5125 112.99 9.0875C113.215 9.65417 113.328 10.3 113.328 11.025V18.7875H115.078V19H107.578ZM119.609 5.5C118.826 5.5 118.171 5.2375 117.646 4.7125C117.121 4.1875 116.859 3.53333 116.859 2.75C116.859 1.95833 117.121 1.30417 117.646 0.7875C118.171 0.262499 118.826 -1.2517e-06 119.609 -1.2517e-06C120.401 -1.2517e-06 121.055 0.262499 121.571 0.7875C122.096 1.30417 122.359 1.95833 122.359 2.75C122.359 3.53333 122.096 4.1875 121.571 4.7125C121.055 5.2375 120.401 5.5 119.609 5.5ZM121.984 7.5V18.7875H123.734V19H115.484V18.7875H117.234V7.7125H115.484V7.5H121.984ZM130.276 7.5V18.7875H131.276V19H123.776V18.7875H125.526V7.7125H123.776V7.5H130.276ZM137.901 11.025V18.7875H139.651V19H132.151V18.7875H133.151V10.975C133.151 10.275 133.122 9.75833 133.063 9.425C133.013 9.09167 132.922 8.875 132.788 8.775C132.663 8.66667 132.484 8.6125 132.251 8.6125C131.934 8.6125 131.651 8.75417 131.401 9.0375C131.159 9.3125 130.955 9.68333 130.788 10.15C130.622 10.6167 130.493 11.1333 130.401 11.7C130.318 12.2667 130.276 12.8417 130.276 13.425H130.076C130.076 12.7833 130.13 12.1042 130.238 11.3875C130.355 10.6708 130.559 10 130.851 9.375C131.151 8.75 131.58 8.24167 132.138 7.85C132.697 7.45 133.422 7.25 134.313 7.25C135.213 7.25 135.926 7.4125 136.451 7.7375C136.976 8.0625 137.347 8.5125 137.563 9.0875C137.788 9.65417 137.901 10.3 137.901 11.025ZM139.932 19V18.7875H142.182V0.462499H139.932V0.249999H146.932V18.7875H147.932V19H139.932ZM148.657 19V18.7875H149.92L145.732 12.225L152.695 7.7125H149.657V7.5H155.232V7.7125H153.032L149.457 10.0375L155.732 18.7875H156.832V19H148.657Z" fill="white"/>
</svg>
