<svg width="433" height="82" viewBox="0 0 433 82" fill="none" xmlns="http://www.w3.org/2000/svg">
<g filter="url(#filter0_b_193_140)">
<path d="M1.66211 36V0.208984H6.39844V31.7764H24.0254V36H1.66211ZM26.7422 23.0361C26.7422 18.2347 28.0768 14.6784 30.7461 12.3672C32.9759 10.4466 35.694 9.48633 38.9004 9.48633C42.4648 9.48633 45.3783 10.6582 47.6406 13.002C49.903 15.3294 51.0342 18.5521 51.0342 22.6699C51.0342 26.0065 50.5296 28.6351 49.5205 30.5557C48.5277 32.46 47.071 33.9411 45.1504 34.999C43.2461 36.057 41.1628 36.5859 38.9004 36.5859C35.2708 36.5859 32.333 35.4222 30.0869 33.0947C27.8571 30.7673 26.7422 27.4144 26.7422 23.0361ZM31.2588 23.0361C31.2588 26.3564 31.9831 28.8467 33.4316 30.5068C34.8802 32.1507 36.7031 32.9727 38.9004 32.9727C41.0814 32.9727 42.8962 32.1426 44.3447 30.4824C45.7933 28.8223 46.5176 26.2913 46.5176 22.8896C46.5176 19.6833 45.7852 17.2581 44.3203 15.6143C42.8717 13.9541 41.0651 13.124 38.9004 13.124C36.7031 13.124 34.8802 13.946 33.4316 15.5898C31.9831 17.2337 31.2588 19.7158 31.2588 23.0361ZM53.8242 23.0361C53.8242 18.2347 55.1589 14.6784 57.8281 12.3672C60.0579 10.4466 62.776 9.48633 65.9824 9.48633C69.5469 9.48633 72.4603 10.6582 74.7227 13.002C76.985 15.3294 78.1162 18.5521 78.1162 22.6699C78.1162 26.0065 77.6117 28.6351 76.6025 30.5557C75.6097 32.46 74.153 33.9411 72.2324 34.999C70.3281 36.057 68.2448 36.5859 65.9824 36.5859C62.3529 36.5859 59.415 35.4222 57.1689 33.0947C54.9391 30.7673 53.8242 27.4144 53.8242 23.0361ZM58.3408 23.0361C58.3408 26.3564 59.0651 28.8467 60.5137 30.5068C61.9622 32.1507 63.7852 32.9727 65.9824 32.9727C68.1634 32.9727 69.9782 32.1426 71.4268 30.4824C72.8753 28.8223 73.5996 26.2913 73.5996 22.8896C73.5996 19.6833 72.8672 17.2581 71.4023 15.6143C69.9538 13.9541 68.1471 13.124 65.9824 13.124C63.7852 13.124 61.9622 13.946 60.5137 15.5898C59.0651 17.2337 58.3408 19.7158 58.3408 23.0361ZM82.5664 36V0.208984H86.9609V20.6191L97.3613 10.0723H103.05L93.1377 19.6914L104.051 36H98.6309L90.0615 22.7432L86.9609 25.7217V36H82.5664ZM129.553 32.0693L130.188 35.9512C128.951 36.2116 127.844 36.3418 126.867 36.3418C125.272 36.3418 124.035 36.0895 123.156 35.585C122.277 35.0804 121.659 34.4212 121.301 33.6074C120.943 32.7773 120.764 31.0439 120.764 28.4072V13.4902H117.541V10.0723H120.764V3.65137L125.134 1.01465V10.0723H129.553V13.4902H125.134V28.6514C125.134 29.9046 125.207 30.7103 125.354 31.0684C125.516 31.4264 125.769 31.7113 126.11 31.9229C126.468 32.1344 126.973 32.2402 127.624 32.2402C128.112 32.2402 128.755 32.1833 129.553 32.0693ZM133.124 36V0.208984H137.519V13.0508C139.569 10.6745 142.157 9.48633 145.282 9.48633C147.203 9.48633 148.871 9.86882 150.287 10.6338C151.703 11.3825 152.712 12.4242 153.314 13.7588C153.933 15.0934 154.242 17.0303 154.242 19.5693V36H149.848V19.5693C149.848 17.3721 149.368 15.777 148.407 14.7842C147.463 13.7751 146.12 13.2705 144.379 13.2705C143.077 13.2705 141.848 13.6123 140.692 14.2959C139.553 14.9632 138.739 15.8747 138.251 17.0303C137.763 18.1859 137.519 19.7809 137.519 21.8154V36H133.124ZM160.157 36V10.0723H164.112V14.0029C165.121 12.1637 166.049 10.9512 166.896 10.3652C167.758 9.7793 168.702 9.48633 169.728 9.48633C171.209 9.48633 172.714 9.95833 174.244 10.9023L172.73 14.9795C171.656 14.3447 170.582 14.0273 169.508 14.0273C168.548 14.0273 167.685 14.3203 166.92 14.9062C166.155 15.4759 165.61 16.2734 165.284 17.2988C164.796 18.8613 164.552 20.5703 164.552 22.4258V36H160.157ZM174.471 23.0361C174.471 18.2347 175.805 14.6784 178.475 12.3672C180.704 10.4466 183.423 9.48633 186.629 9.48633C190.193 9.48633 193.107 10.6582 195.369 13.002C197.632 15.3294 198.763 18.5521 198.763 22.6699C198.763 26.0065 198.258 28.6351 197.249 30.5557C196.256 32.46 194.799 33.9411 192.879 34.999C190.975 36.057 188.891 36.5859 186.629 36.5859C182.999 36.5859 180.062 35.4222 177.815 33.0947C175.586 30.7673 174.471 27.4144 174.471 23.0361ZM178.987 23.0361C178.987 26.3564 179.712 28.8467 181.16 30.5068C182.609 32.1507 184.432 32.9727 186.629 32.9727C188.81 32.9727 190.625 32.1426 192.073 30.4824C193.522 28.8223 194.246 26.2913 194.246 22.8896C194.246 19.6833 193.514 17.2581 192.049 15.6143C190.6 13.9541 188.794 13.124 186.629 13.124C184.432 13.124 182.609 13.946 181.16 15.5898C179.712 17.2337 178.987 19.7158 178.987 23.0361ZM220.181 36V32.1914C218.162 35.1211 215.42 36.5859 211.953 36.5859C210.423 36.5859 208.991 36.293 207.656 35.707C206.338 35.1211 205.353 34.3887 204.702 33.5098C204.067 32.6146 203.62 31.5241 203.359 30.2383C203.18 29.3757 203.091 28.0085 203.091 26.1367V10.0723H207.485V24.4521C207.485 26.7471 207.575 28.2933 207.754 29.0908C208.031 30.2464 208.617 31.1579 209.512 31.8252C210.407 32.4762 211.514 32.8018 212.832 32.8018C214.15 32.8018 215.387 32.4681 216.543 31.8008C217.699 31.1172 218.512 30.1976 218.984 29.042C219.473 27.8701 219.717 26.1774 219.717 23.9639V10.0723H224.111V36H220.181ZM229.465 38.1484L233.737 38.7832C233.916 40.1016 234.413 41.0618 235.227 41.6641C236.317 42.4779 237.806 42.8848 239.694 42.8848C241.729 42.8848 243.299 42.4779 244.406 41.6641C245.513 40.8503 246.262 39.7109 246.652 38.2461C246.88 37.3509 246.986 35.471 246.97 32.6064C245.049 34.8688 242.657 36 239.792 36C236.228 36 233.469 34.7142 231.516 32.1426C229.562 29.571 228.586 26.4867 228.586 22.8896C228.586 20.4157 229.034 18.137 229.929 16.0537C230.824 13.9541 232.118 12.3346 233.811 11.1953C235.52 10.056 237.521 9.48633 239.816 9.48633C242.876 9.48633 245.399 10.7233 247.385 13.1973V10.0723H251.438V32.4844C251.438 36.5208 251.022 39.3773 250.192 41.0537C249.379 42.7464 248.076 44.0811 246.286 45.0576C244.512 46.0342 242.323 46.5225 239.719 46.5225C236.626 46.5225 234.128 45.8226 232.224 44.4229C230.319 43.0394 229.4 40.9479 229.465 38.1484ZM233.103 22.5723C233.103 25.974 233.778 28.4561 235.129 30.0186C236.48 31.5811 238.173 32.3623 240.207 32.3623C242.225 32.3623 243.918 31.5892 245.285 30.043C246.652 28.4805 247.336 26.0391 247.336 22.7188C247.336 19.5449 246.628 17.1523 245.212 15.541C243.812 13.9297 242.119 13.124 240.134 13.124C238.181 13.124 236.521 13.9215 235.153 15.5166C233.786 17.0954 233.103 19.4473 233.103 22.5723ZM257.353 36V0.208984H261.747V13.0508C263.798 10.6745 266.386 9.48633 269.511 9.48633C271.431 9.48633 273.1 9.86882 274.516 10.6338C275.932 11.3825 276.941 12.4242 277.543 13.7588C278.161 15.0934 278.471 17.0303 278.471 19.5693V36H274.076V19.5693C274.076 17.3721 273.596 15.777 272.636 14.7842C271.692 13.7751 270.349 13.2705 268.607 13.2705C267.305 13.2705 266.076 13.6123 264.921 14.2959C263.782 14.9632 262.968 15.8747 262.479 17.0303C261.991 18.1859 261.747 19.7809 261.747 21.8154V36H257.353ZM314.52 26.5029L318.841 27.0645C318.369 30.043 317.156 32.3786 315.203 34.0713C313.266 35.7477 310.882 36.5859 308.05 36.5859C304.502 36.5859 301.645 35.4303 299.48 33.1191C297.332 30.7917 296.258 27.4632 296.258 23.1338C296.258 20.3343 296.722 17.8848 297.649 15.7852C298.577 13.6855 299.985 12.1149 301.873 11.0732C303.777 10.0153 305.844 9.48633 308.074 9.48633C310.89 9.48633 313.193 10.2025 314.983 11.6348C316.774 13.0508 317.921 15.069 318.426 17.6895L314.153 18.3486C313.746 16.6071 313.022 15.2969 311.98 14.418C310.955 13.5391 309.71 13.0996 308.245 13.0996C306.032 13.0996 304.233 13.8971 302.85 15.4922C301.466 17.071 300.774 19.5775 300.774 23.0117C300.774 26.4948 301.442 29.0257 302.776 30.6045C304.111 32.1833 305.853 32.9727 308.001 32.9727C309.726 32.9727 311.167 32.4437 312.322 31.3857C313.478 30.3278 314.21 28.7002 314.52 26.5029ZM320.215 23.0361C320.215 18.2347 321.549 14.6784 324.219 12.3672C326.449 10.4466 329.167 9.48633 332.373 9.48633C335.938 9.48633 338.851 10.6582 341.113 13.002C343.376 15.3294 344.507 18.5521 344.507 22.6699C344.507 26.0065 344.002 28.6351 342.993 30.5557C342 32.46 340.544 33.9411 338.623 34.999C336.719 36.057 334.635 36.5859 332.373 36.5859C328.743 36.5859 325.806 35.4222 323.56 33.0947C321.33 30.7673 320.215 27.4144 320.215 23.0361ZM324.731 23.0361C324.731 26.3564 325.456 28.8467 326.904 30.5068C328.353 32.1507 330.176 32.9727 332.373 32.9727C334.554 32.9727 336.369 32.1426 337.817 30.4824C339.266 28.8223 339.99 26.2913 339.99 22.8896C339.99 19.6833 339.258 17.2581 337.793 15.6143C336.344 13.9541 334.538 13.124 332.373 13.124C330.176 13.124 328.353 13.946 326.904 15.5898C325.456 17.2337 324.731 19.7158 324.731 23.0361ZM348.835 36V0.208984H353.229V36H348.835ZM357.68 23.0361C357.68 18.2347 359.014 14.6784 361.684 12.3672C363.913 10.4466 366.632 9.48633 369.838 9.48633C373.402 9.48633 376.316 10.6582 378.578 13.002C380.84 15.3294 381.972 18.5521 381.972 22.6699C381.972 26.0065 381.467 28.6351 380.458 30.5557C379.465 32.46 378.008 33.9411 376.088 34.999C374.184 36.057 372.1 36.5859 369.838 36.5859C366.208 36.5859 363.271 35.4222 361.024 33.0947C358.795 30.7673 357.68 27.4144 357.68 23.0361ZM362.196 23.0361C362.196 26.3564 362.921 28.8467 364.369 30.5068C365.818 32.1507 367.641 32.9727 369.838 32.9727C372.019 32.9727 373.834 32.1426 375.282 30.4824C376.731 28.8223 377.455 26.2913 377.455 22.8896C377.455 19.6833 376.723 17.2581 375.258 15.6143C373.809 13.9541 372.003 13.124 369.838 13.124C367.641 13.124 365.818 13.946 364.369 15.5898C362.921 17.2337 362.196 19.7158 362.196 23.0361ZM386.349 36V10.0723H390.304V14.0029C391.313 12.1637 392.241 10.9512 393.087 10.3652C393.95 9.7793 394.894 9.48633 395.919 9.48633C397.4 9.48633 398.906 9.95833 400.436 10.9023L398.922 14.9795C397.848 14.3447 396.773 14.0273 395.699 14.0273C394.739 14.0273 393.876 14.3203 393.111 14.9062C392.346 15.4759 391.801 16.2734 391.476 17.2988C390.987 18.8613 390.743 20.5703 390.743 22.4258V36H386.349ZM400.54 28.2607L404.886 27.5771C405.13 29.3187 405.805 30.6533 406.912 31.5811C408.035 32.5088 409.598 32.9727 411.6 32.9727C413.618 32.9727 415.115 32.5658 416.092 31.752C417.068 30.9219 417.557 29.9535 417.557 28.8467C417.557 27.8538 417.125 27.0726 416.263 26.5029C415.66 26.1123 414.163 25.6159 411.771 25.0137C408.548 24.1999 406.31 23.5 405.057 22.9141C403.82 22.3118 402.876 21.4899 402.225 20.4482C401.59 19.3903 401.272 18.2266 401.272 16.957C401.272 15.8014 401.533 14.7354 402.054 13.7588C402.591 12.766 403.315 11.944 404.227 11.293C404.91 10.7884 405.838 10.3652 407.01 10.0234C408.198 9.66536 409.467 9.48633 410.818 9.48633C412.853 9.48633 414.635 9.7793 416.165 10.3652C417.711 10.9512 418.851 11.7487 419.583 12.7578C420.315 13.7507 420.82 15.0853 421.097 16.7617L416.8 17.3477C416.604 16.013 416.035 14.9714 415.091 14.2227C414.163 13.474 412.845 13.0996 411.136 13.0996C409.118 13.0996 407.677 13.4333 406.814 14.1006C405.952 14.7679 405.521 15.5492 405.521 16.4443C405.521 17.014 405.7 17.5267 406.058 17.9824C406.416 18.4544 406.977 18.8451 407.742 19.1543C408.182 19.3171 409.476 19.6914 411.624 20.2773C414.733 21.1074 416.897 21.791 418.118 22.3281C419.355 22.849 420.324 23.6139 421.023 24.623C421.723 25.6322 422.073 26.8854 422.073 28.3828C422.073 29.8477 421.642 31.2311 420.779 32.5332C419.933 33.819 418.704 34.82 417.093 35.5361C415.481 36.236 413.659 36.5859 411.624 36.5859C408.255 36.5859 405.683 35.8861 403.909 34.4863C402.151 33.0866 401.028 31.0114 400.54 28.2607ZM427.695 36V30.9951H432.7V36C432.7 37.8392 432.375 39.3203 431.724 40.4434C431.073 41.5827 430.039 42.4616 428.623 43.0801L427.402 41.2002C428.33 40.7933 429.014 40.1911 429.453 39.3936C429.893 38.6123 430.137 37.4811 430.186 36H427.695ZM21.7549 76.7764C20.3063 78.3877 18.7275 79.6003 17.0186 80.4141C15.3096 81.2116 13.4622 81.6104 11.4766 81.6104C7.81445 81.6104 4.90918 80.3734 2.76074 77.8994C1.01921 75.8812 0.148438 73.627 0.148438 71.1367C0.148438 68.9232 0.856445 66.9294 2.27246 65.1553C3.70475 63.3649 5.83691 61.7943 8.66895 60.4434C7.05762 58.5879 5.9834 57.0824 5.44629 55.9268C4.90918 54.7712 4.64062 53.6562 4.64062 52.582C4.64062 50.4336 5.47884 48.57 7.15527 46.9912C8.84798 45.3962 10.972 44.5986 13.5273 44.5986C15.9688 44.5986 17.9626 45.3473 19.5088 46.8447C21.0713 48.3421 21.8525 50.1406 21.8525 52.2402C21.8525 55.6419 19.5983 58.5472 15.0898 60.9561L21.5107 69.1348C22.2432 67.7025 22.8128 66.0423 23.2197 64.1543L27.7852 65.1309C27.0039 68.2559 25.946 70.8275 24.6113 72.8457C26.2552 75.0267 28.1188 76.8577 30.2021 78.3389L27.248 81.8301C25.474 80.6908 23.6429 79.0062 21.7549 76.7764ZM12.8193 58.124C14.7236 57.001 15.9525 56.0163 16.5059 55.1699C17.0755 54.3236 17.3604 53.3877 17.3604 52.3623C17.3604 51.1416 16.9697 50.1488 16.1885 49.3838C15.4235 48.6025 14.4632 48.2119 13.3076 48.2119C12.1195 48.2119 11.1266 48.5944 10.3291 49.3594C9.54785 50.1243 9.15723 51.0602 9.15723 52.167C9.15723 52.7204 9.29557 53.3063 9.57227 53.9248C9.86523 54.527 10.2965 55.1699 10.8662 55.8535L12.8193 58.124ZM18.9961 73.3096L10.9395 63.3242C8.56315 64.7402 6.95996 66.0586 6.12988 67.2793C5.2998 68.4837 4.88477 69.68 4.88477 70.8682C4.88477 72.3167 5.46257 73.8223 6.61816 75.3848C7.77376 76.9473 9.40951 77.7285 11.5254 77.7285C12.8438 77.7285 14.2028 77.3216 15.6025 76.5078C17.0186 75.6777 18.1497 74.6117 18.9961 73.3096ZM48.1113 81V58.4902H44.2295V55.0723H48.1113V52.3135C48.1113 50.5719 48.266 49.278 48.5752 48.4316C48.9984 47.2923 49.7389 46.3727 50.7969 45.6729C51.8711 44.9567 53.3685 44.5986 55.2891 44.5986C56.526 44.5986 57.8932 44.7451 59.3906 45.0381L58.7314 48.8711C57.82 48.7083 56.9574 48.627 56.1436 48.627C54.8089 48.627 53.8649 48.9118 53.3115 49.4814C52.7581 50.0511 52.4814 51.1172 52.4814 52.6797V55.0723H57.5352V58.4902H52.4814V81H48.1113ZM60.252 50.2627V45.209H64.6465V50.2627H60.252ZM60.252 81V55.0723H64.6465V81H60.252ZM70.6104 81V55.0723H74.5654V58.7588C76.4697 55.9105 79.2204 54.4863 82.8174 54.4863C84.3799 54.4863 85.8122 54.7712 87.1143 55.3408C88.4326 55.8942 89.4173 56.6266 90.0684 57.5381C90.7194 58.4495 91.1751 59.5319 91.4355 60.7852C91.5983 61.599 91.6797 63.0231 91.6797 65.0576V81H87.2852V65.2285C87.2852 63.4382 87.1143 62.1035 86.7725 61.2246C86.4307 60.3294 85.8203 59.6214 84.9414 59.1006C84.0788 58.5635 83.0615 58.2949 81.8896 58.2949C80.0179 58.2949 78.3984 58.889 77.0312 60.0771C75.6803 61.2653 75.0049 63.5195 75.0049 66.8398V81H70.6104ZM114.514 81V77.7285C112.87 80.3001 110.453 81.5859 107.263 81.5859C105.196 81.5859 103.291 81.0163 101.55 79.877C99.8245 78.7376 98.4818 77.1507 97.5215 75.1162C96.5775 73.0654 96.1055 70.7135 96.1055 68.0605C96.1055 65.4727 96.5368 63.1289 97.3994 61.0293C98.262 58.9134 99.556 57.2939 101.281 56.1709C103.007 55.0479 104.935 54.4863 107.067 54.4863C108.63 54.4863 110.021 54.82 111.242 55.4873C112.463 56.1383 113.456 56.9928 114.221 58.0508V45.209H118.591V81H114.514ZM100.622 68.0605C100.622 71.3809 101.322 73.863 102.722 75.5068C104.121 77.1507 105.773 77.9727 107.678 77.9727C109.598 77.9727 111.226 77.1914 112.561 75.6289C113.911 74.0501 114.587 71.6494 114.587 68.4268C114.587 64.8786 113.903 62.2744 112.536 60.6143C111.169 58.9541 109.484 58.124 107.482 58.124C105.529 58.124 103.894 58.9215 102.575 60.5166C101.273 62.1117 100.622 64.6263 100.622 68.0605ZM154.859 77.8018C153.232 79.1852 151.661 80.1618 150.147 80.7314C148.65 81.3011 147.039 81.5859 145.313 81.5859C142.465 81.5859 140.276 80.8942 138.746 79.5107C137.216 78.111 136.451 76.3288 136.451 74.1641C136.451 72.8945 136.736 71.7389 137.306 70.6973C137.892 69.6393 138.648 68.793 139.576 68.1582C140.52 67.5234 141.578 67.0433 142.75 66.7178C143.613 66.4899 144.915 66.2702 146.656 66.0586C150.204 65.6354 152.817 65.1309 154.493 64.5449C154.509 63.9427 154.518 63.5602 154.518 63.3975C154.518 61.6071 154.103 60.3457 153.272 59.6133C152.149 58.6204 150.481 58.124 148.268 58.124C146.201 58.124 144.671 58.4902 143.678 59.2227C142.701 59.9388 141.977 61.2165 141.505 63.0557L137.208 62.4697C137.599 60.6305 138.242 59.1494 139.137 58.0264C140.032 56.887 141.326 56.0163 143.019 55.4141C144.711 54.7956 146.673 54.4863 148.902 54.4863C151.116 54.4863 152.914 54.7467 154.298 55.2676C155.681 55.7884 156.699 56.4476 157.35 57.2451C158.001 58.0264 158.456 59.0192 158.717 60.2236C158.863 60.9723 158.937 62.3232 158.937 64.2764V70.1357C158.937 74.221 159.026 76.8089 159.205 77.8994C159.4 78.9736 159.775 80.0072 160.328 81H155.738C155.283 80.0885 154.99 79.0225 154.859 77.8018ZM154.493 67.9873C152.898 68.6383 150.506 69.1917 147.315 69.6475C145.509 69.9079 144.231 70.2008 143.482 70.5264C142.734 70.8519 142.156 71.332 141.749 71.9668C141.342 72.5853 141.139 73.277 141.139 74.042C141.139 75.2139 141.578 76.1904 142.457 76.9717C143.352 77.7529 144.654 78.1436 146.363 78.1436C148.056 78.1436 149.562 77.7773 150.88 77.0449C152.198 76.2962 153.167 75.279 153.785 73.9932C154.257 73.0003 154.493 71.5355 154.493 69.5986V67.9873ZM164.974 81V55.0723H168.929V59.0029C169.938 57.1637 170.866 55.9512 171.712 55.3652C172.575 54.7793 173.519 54.4863 174.544 54.4863C176.025 54.4863 177.531 54.9583 179.061 55.9023L177.547 59.9795C176.473 59.3447 175.398 59.0273 174.324 59.0273C173.364 59.0273 172.501 59.3203 171.736 59.9062C170.971 60.4759 170.426 61.2734 170.101 62.2988C169.612 63.8613 169.368 65.5703 169.368 67.4258V81H164.974ZM190.518 77.0693L191.152 80.9512C189.915 81.2116 188.809 81.3418 187.832 81.3418C186.237 81.3418 185 81.0895 184.121 80.585C183.242 80.0804 182.624 79.4212 182.266 78.6074C181.908 77.7773 181.729 76.0439 181.729 73.4072V58.4902H178.506V55.0723H181.729V48.6514L186.099 46.0146V55.0723H190.518V58.4902H186.099V73.6514C186.099 74.9046 186.172 75.7103 186.318 76.0684C186.481 76.4264 186.733 76.7113 187.075 76.9229C187.433 77.1344 187.938 77.2402 188.589 77.2402C189.077 77.2402 189.72 77.1833 190.518 77.0693ZM195.334 81V75.9951H200.339V81H195.334Z" fill="black"/>
</g>
<defs>
<filter id="filter0_b_193_140" x="-24.8516" y="-24.791" width="482.552" height="131.621" filterUnits="userSpaceOnUse" color-interpolation-filters="sRGB">
<feFlood flood-opacity="0" result="BackgroundImageFix"/>
<feGaussianBlur in="BackgroundImageFix" stdDeviation="12.5"/>
<feComposite in2="SourceAlpha" operator="in" result="effect1_backgroundBlur_193_140"/>
<feBlend mode="normal" in="SourceGraphic" in2="effect1_backgroundBlur_193_140" result="shape"/>
</filter>
</defs>
</svg>
